<svg xmlns="http://www.w3.org/2000/svg" width="2160" height="2160" viewBox="0 0 2160 2160">
  <metadata><?xpacket begin="﻿" id="W5M0MpCehiHzreSzNTczkc9d"?>
<x:xmpmeta xmlns:x="adobe:ns:meta/" x:xmptk="Adobe XMP Core 5.6-c140 79.160451, 2017/05/06-01:08:21        ">
   <rdf:RDF xmlns:rdf="http://www.w3.org/1999/02/22-rdf-syntax-ns#">
      <rdf:Description rdf:about=""/>
   </rdf:RDF>
</x:xmpmeta>
                                                                                                    
                                                                                                    
                                                                                                    
                                                                                                    
                                                                                                    
                                                                                                    
                                                                                                    
                                                                                                    
                                                                                                    
                                                                                                    
                                                                                                    
                                                                                                    
                                                                                                    
                                                                                                    
                                                                                                    
                                                                                                    
                                                                                                    
                                                                                                    
                                                                                                    
                                                                                                    
                           
<?xpacket end="w"?></metadata>
<defs>
    <style>
      .cls-1 {
        fill: #212121;
        fill-rule: evenodd;
      }
    </style>
  </defs>
  <path id="Shape_3_copy" data-name="Shape 3 copy" class="cls-1" d="M1.258,1239.6c62.59,48.43,131.148,78.83,205.025,82.49C299.5,1326.72,355.958,1286.27,435,1256c173.045-66.27,403.889-61.28,526,51,56.78,52.21,50.13,97.96,97.26,157.84,100.84,128.13,284.93,138.36,313.95,242.06,35.01,125.09-205.5,255.9-172.99,343.08,27.18,72.89,230.69,82.09,400.78,50.02,141.74-26.72,254.76-81.15,377-30,46.92,19.64,86.27,50.94,119,90H0Q0.629,1699.8,1.258,1239.6ZM1288,1315c-24.27,41.75,8.17,108.83,53.94,128.99,69.35,30.55,166.31-47.91,160.06-96.99-4.6-36.13-64.54-55.6-90-61C1393.83,1282.15,1314.92,1268.69,1288,1315Zm279-74c-11,4.18-13.25,52.33,13,73,31.81,25.04,88.85-3.4,88-15-0.58-7.91-33.79-6.97-61-25C1589.33,1262.3,1574.31,1238.22,1567,1241Zm188,524c-33.06-3.91-56.38,37.08-93.61,48.77-45.99,14.45-97.86-9.83-104.39,3.23-5.36,10.72,20.76,35.64,43,51,35.16,24.3,89.76,43.75,148,28,42.77-11.57,62.71-30.63,67-45C1825.45,1816.04,1789.8,1769.11,1755,1765Z"/>
</svg>
